<mxfile host="app.diagrams.net" modified="2023-11-19T15:43:14.649Z" agent="Mozilla/5.0 (Windows NT 10.0; Win64; x64) AppleWebKit/537.36 (KHTML, like Gecko) Chrome/119.0.0.0 Safari/537.36" version="22.1.3" etag="Qs7GC5gga5kbV7EzX5nc" type="github">
  <diagram name="페이지-1" id="D3_TqGCvkwunuw-a2vWk">
    <mxGraphModel>
      <root>
        <mxCell id="0" />
        <mxCell id="1" parent="0" />
      </root>
    </mxGraphModel>
  </diagram>
</mxfile>
